PathFileType	4	(x/y/z)	S08_P20_T07
DataRate	CameraRate	NumFrames	NumMarkers	Units	OrigDataRate	OrigDataStartFrame	OrigNumFrames
240	240	4	51	mm	240	327	373
Frame#	Time	Sternum			R.Acromium			L.Acromium			Top.Head			R.ASIS			L.ASIS			R.PSIS			L.PSIS			R.Great.Tro			L.Great.Tro			R.Iliac.Crest			L.Iliac.Crest			V.Sacral			R.Thigh.Upper.Post			R.Thigh.Lower.Ant			R.Thigh.Lower.Post			R.Thigh.Upper.Ant			R.Knee.Lat			R.Knee.Med			R.Shank.Upper.Post			R.Shank.Lower.Ant			R.Shank.Lower.Post			R.Shank.Upper.Ant			R.Ankle.Lat			R.Ankle.Med			R.Heel.Upper			R.Heel.Med			R.Heel.Lat			R.Toe.Lat			R.Toe.Med			R.Toe.Tip			L.Thigh.Upper.Post			L.Thigh.Lower.Ant			L.Thigh.Lower.Post			L.Thigh.Upper.Ant			L.Knee.Lat			L.Knee.Med			L.Shank.Upper.Post			L.Shank.Lower.Ant			L.Shank.Lower.Post			L.Shank.Upper.Ant			L.Ankle.Lat			L.Ankle.Med			L.Heel.Upper			L.Heel.Med			L.Heel.Lat			L.Toe.Lat			L.Toe.Med			L.Toe.Tip			Cervical.Spine			Back			
		X1	Y1	Z1	X2	Y2	Z2	X3	Y3	Z3	X4	Y4	Z4	X5	Y5	Z5	X6	Y6	Z6	X7	Y7	Z7	X8	Y8	Z8	X9	Y9	Z9	X10	Y10	Z10	X11	Y11	Z11	X12	Y12	Z12	X13	Y13	Z13	X14	Y14	Z14	X15	Y15	Z15	X16	Y16	Z16	X17	Y17	Z17	X18	Y18	Z18	X19	Y19	Z19	X20	Y20	Z20	X21	Y21	Z21	X22	Y22	Z22	X23	Y23	Z23	X24	Y24	Z24	X25	Y25	Z25	X26	Y26	Z26	X27	Y27	Z27	X28	Y28	Z28	X29	Y29	Z29	X30	Y30	Z30	X31	Y31	Z31	X32	Y32	Z32	X33	Y33	Z33	X34	Y34	Z34	X35	Y35	Z35	X36	Y36	Z36	X37	Y37	Z37	X38	Y38	Z38	X39	Y39	Z39	X40	Y40	Z40	X41	Y41	Z41	X42	Y42	Z42	X43	Y43	Z43	X44	Y44	Z44	X45	Y45	Z45	X46	Y46	Z46	X47	Y47	Z47	X48	Y48	Z48	X49	Y49	Z49	X50	Y50	Z50	X51	Y51	Z51	

327	1.3583	440.74	1219.6	307.17	325.29	1454	487.99	311.4	1489.6	153.68	328.02	1776.2	348.87	409.24	1011.8	414.93	404.31	1006.8	183.8	205.9	1029.2	348.46	208.41	1033.5	255.13	358.42	904.53	491.49	305.72	902.85	121.46	313.75	1077.1	464.41	312.87	1089.8	158.23	192.06	990.45	300.48	407.02	703.09	478.23	513.58	639.72	443.03	444.38	622.99	456.61	481	726.82	465.25	516.93	542.39	436.32	483.13	532.19	312.05	502.34	349.99	448.13	576.92	304.46	424.4	521.19	274.99	440.96	558.18	380	432.91	564.64	109.36	406.34	590.62	133.23	327.5	531.63	59.416	356.25	552.24	38.314	329.59	543.33	37.286	391.13	NaN	NaN	NaN	727.85	100.26	323.29	781.4	136.77	370.89	253.28	707.86	136.93	318.65	603.77	167.74	251.71	616.51	160.61	320.71	689.95	142.16	240.7	513.4	182.77	244.32	514.82	308.44	126.71	356.82	182.41	162.8	253.84	208.52	100.6	288.91	199.7	183.79	325.79	191.6	67.977	118.82	218.94	87.717	116.34	305.51	6.0653	94.281	266.26	14.281	56.052	294.44	11.118	68.629	230.77	185.11	40.22	197.47	202.65	35.432	313.57	269.46	45.507	266.07	249.14	1513.7	316.81	204.4	1231.2	316.25
328	1.3625	446.35	1218.9	307.63	330.58	1453.3	488.36	316.92	1488.8	154.03	333.36	1775.5	349.19	415.01	1011.1	415.3	410.08	1006.1	184.1	211.66	1028.4	348.82	214.1	1032.7	255.45	364.13	903.79	491.78	311.26	902.22	121.75	319.62	1076.3	464.76	318.57	1089.1	158.53	197.84	989.64	300.83	412.42	702.33	478.13	518.88	638.88	442.98	449.66	622.23	456.37	486.48	725.96	465.48	522	541.47	436.08	488.48	531.55	311.79	507.16	348.97	447.67	581.67	303.37	423.89	525.91	273.98	440.45	563.03	378.92	432.5	569.26	108.51	405.81	595.15	132.32	326.87	536.14	58.941	355.7	556.63	37.702	329.07	547.79	36.826	390.64	NaN	NaN	NaN	732.26	99.21	322.54	785.89	135.73	370.05	258.68	707.31	137.43	324.02	603.12	168.02	257.06	615.92	161.15	326.08	689.32	142.5	245.87	512.88	183.14	249.78	514.21	308.77	130.43	357.54	182.62	165.35	254.15	208.57	103.55	289.92	199.82	187.16	325.85	191.72	68.94	120.15	218.87	88.782	117.53	305.38	6.8406	96.099	266.22	14.712	57.918	294.46	11.629	70.328	230.77	185.22	40.162	197.47	202.83	35.625	313.56	269.66	45.251	266.03	254.57	1513	317.09	210	1230.4	316.5
329	1.3667	451.97	1218.2	308.11	335.88	1452.6	488.73	322.43	1488.1	154.39	338.7	1774.8	349.51	420.81	1010.4	415.67	415.89	1005.4	184.42	217.44	1027.6	349.17	219.83	1032	255.76	369.85	903.05	492.06	316.85	901.61	122.05	325.54	1075.6	465.13	324.31	1088.4	158.82	203.65	988.87	301.18	417.86	701.6	477.99	524.21	638.05	442.92	454.96	621.48	456.09	492	725.12	465.67	527.08	540.55	435.83	493.88	530.94	311.52	511.8	347.98	447.2	586.2	302.22	423.37	530.37	272.98	439.94	567.74	377.81	432.06	573.41	107.64	405.3	599.24	131.34	326.26	540.1	58.568	355.18	560.42	37.149	328.58	551.66	36.451	390.17	NaN	NaN	NaN	736.17	97.884	321.79	789.92	134.32	369.2	264.19	706.73	137.97	329.55	602.47	168.29	262.57	615.31	161.71	331.58	688.69	142.85	251.25	512.35	183.51	255.46	513.58	309.08	134.33	358.31	182.81	168.04	254.51	208.6	106.66	291	199.92	190.69	325.95	191.82	69.993	121.57	218.75	89.944	118.82	305.2	7.7073	98.087	266.13	15.208	59.961	294.46	12.209	72.182	230.75	185.34	40.108	197.46	203.02	35.854	313.55	269.85	45.005	265.99	259.99	1512.3	317.4	215.62	1229.6	316.77
330	1.3708	457.6	1217.5	308.61	341.18	1451.9	489.13	327.92	1487.4	154.76	344.04	1774.2	349.83	426.64	1009.8	416.06	421.74	1004.8	184.75	223.25	1026.8	349.53	225.6	1031.3	256.07	375.6	902.33	492.34	322.5	901.01	122.36	331.5	1074.9	465.5	330.07	1087.8	159.12	209.48	988.13	301.52	423.32	700.89	477.82	529.55	637.22	442.82	460.27	620.76	455.78	497.54	724.29	465.83	532.16	539.66	435.56	499.31	530.36	311.24	516.3	347.02	446.72	590.52	301.04	422.84	534.61	272	439.43	572.32	376.67	431.61	577.13	106.78	404.83	602.9	130.32	325.67	543.56	58.297	354.69	563.65	36.66	328.11	554.98	36.16	389.73	NaN	NaN	NaN	739.6	96.301	321.04	793.54	132.58	368.34	269.83	706.12	138.54	335.27	601.82	168.56	268.26	614.67	162.28	337.2	688.06	143.21	256.85	511.79	183.87	261.36	512.91	309.37	138.43	359.13	182.98	170.87	254.92	208.6	109.94	292.15	200	194.39	326.07	191.89	71.144	123.1	218.61	91.215	120.22	304.99	8.6785	100.25	266.02	15.779	62.191	294.44	12.868	74.2	230.7	185.47	40.061	197.45	203.23	36.123	313.55	270.05	44.77	265.96	265.41	1511.6	317.72	221.24	1228.9	317.06
